<svg xmlns="http://www.w3.org/2000/svg" viewBox="0 0 53.27 42.64"><defs><style>.cls-1{fill:#fff;}</style></defs><title>destAsset 5</title><g id="Layer_2" data-name="Layer 2"><g id="Layer_1-2" data-name="Layer 1"><path class="cls-1" d="M10.39,18c.48,3.1,2.2,7.17,7.61,7.6,5.35-.16,7-4.18,7.55-7.23.43.27,1.17.11,2-2.73.64-2.36.27-3.11-.32-3.32,1.87-8.84-2.36-9.16-2.36-9.16a5.85,5.85,0,0,0-2.3-2.14,7.71,7.71,0,0,0-4.77-1,6.91,6.91,0,0,0-1.87.38,9.16,9.16,0,0,0-2.09,1.07,11.07,11.07,0,0,0-2.14,1.76A8.81,8.81,0,0,0,9.37,7.31a7.85,7.85,0,0,0,.22,4.56c-.75-.11-1.66.32-.81,3.32C9.37,17.38,10,18,10.39,18Z"/><path class="cls-1" d="M29.51,40.36l-3.64-2.52a2.79,2.79,0,0,1-1.18-2.62A2.71,2.71,0,0,1,26.51,33l7.77-2.79a7.3,7.3,0,0,0-2.52-1.5,43.09,43.09,0,0,1-7.12-3.42L21.21,36.13l-.48,1.5-1.56-4.39c3.54-4.93-.26-5.2-.91-5.2s-4.44.22-.91,5.2l-1.66,4.33-.43-1.44L11.84,25.26a39,39,0,0,1-7.13,3.42C-.21,30.45.11,34.52,0,42.13H31.12V40.68c-.11,0-.27,0-.38,0A2,2,0,0,1,29.51,40.36Z"/><path class="cls-1" d="M27.52,35.56l24.14-9.11a.57.57,0,0,1,.74.71L51.24,31.4,33.07,35.54l17.37-1.13,2.75,3.22a.36.36,0,0,1-.2.59l-3.64.44-.92,3.54a.61.61,0,0,1-.76.43L27.56,36C27.38,35.89,27.36,35.63,27.52,35.56Z"/></g></g></svg>