<svg xmlns="http://www.w3.org/2000/svg" viewBox="0 0 51.8 44.97"><defs><style>.cls-1{fill:#fff;}</style></defs><title>senderAsset 4</title><g id="Layer_2" data-name="Layer 2"><g id="Layer_1-2" data-name="Layer 1"><path class="cls-1" d="M11.68,3.24a11.07,11.07,0,0,1,2.14-1.76A9.16,9.16,0,0,1,15.91.41h0A6.91,6.91,0,0,1,17.78,0a7.71,7.71,0,0,1,4.77,1,5.85,5.85,0,0,1,2.3,2.14s4.23.32,2.36,9.16c.59.21,1,1,.32,3.32-.81,2.84-1.55,3-2,2.73-.54,3.05-2.2,7.07-7.55,7.23-5.41-.43-7.13-4.5-7.61-7.6-.43-.06-1-.65-1.61-2.84-.85-3,.06-3.43.81-3.32a7.85,7.85,0,0,1-.22-4.56A8.81,8.81,0,0,1,11.68,3.24Zm3.58,32.89L11.84,25.26a39,39,0,0,1-7.13,3.42C-.21,30.45.11,34.52,0,42.13H31.12V40.68c-.11,0-.27,0-.38,0a2,2,0,0,1-1.23-.37l-3.64-2.52a2.79,2.79,0,0,1-1.18-2.62A2.71,2.71,0,0,1,26.51,33l7.77-2.79a7.3,7.3,0,0,0-2.52-1.5,43.09,43.09,0,0,1-7.12-3.42L21.21,36.13l-.48,1.5-1.56-4.39c3.54-4.93-.26-5.2-.91-5.2h0c-.64,0-4.44.22-.91,5.2l-1.66,4.33Zm36.26-9.91L27.26,35a.57.57,0,0,0-.11,1l3.65,2.46,16.49-8.67L33.37,40.25v4.23c0,.27.32.49.53.32l3.05-2,3,2.09a.62.62,0,0,0,.86-.16l11-18.1C51.84,26.38,51.68,26.17,51.52,26.22Z"/></g></g></svg>