<svg xmlns="http://www.w3.org/2000/svg" xmlns:xlink="http://www.w3.org/1999/xlink" viewBox="0 0 511 511"><defs><style>.cls-1{fill:none;}.cls-2{clip-path:url(#clip-path);}.cls-3{clip-path:url(#clip-path-2);}.cls-4{clip-path:url(#clip-path-3);}.cls-5{fill:#141414;}.cls-6{fill:#077854;}.cls-7{fill:#fff;}</style><clipPath id="clip-path" transform="translate(-1 -1)"><rect class="cls-1" width="512" height="512"/></clipPath><clipPath id="clip-path-2" transform="translate(-1 -1)"><rect class="cls-1" x="1" y="1" width="511" height="511" rx="32.75" ry="32.75"/></clipPath><clipPath id="clip-path-3" transform="translate(-1 -1)"><rect class="cls-1" x="1" y="1" width="511" height="511" rx="59.33" ry="59.33"/></clipPath></defs><title>faviconAsset 2</title><g id="Layer_2" data-name="Layer 2"><g id="Layer_3" data-name="Layer 3"><g class="cls-2"><g class="cls-3"><g class="cls-4"><rect class="cls-5" width="511" height="511" rx="80.35" ry="80.35"/></g></g></g><path class="cls-6" d="M71.48,319.65q0,2,4.25,4h-.6q-8.05,0-12,2a27.28,27.28,0,0,1-10.68,2,26,26,0,0,1-10.52-2q-4.17-2-12.22-2h-.59c2.82-1.31,4.24-2.63,4.24-4V217c0-1.32-1.42-2.63-4.24-3.95q8.48-.08,12.81-2a22.39,22.39,0,0,1,10-2h1a23.54,23.54,0,0,1,10.18,2q4.17,1.89,12.65,2c-2.83,1.32-4.25,2.63-4.25,3.95v33.55H58.76V224.85c0-2.58-1.42-3.87-4.24-3.87H50.28Q46,221,46,224.85v86.91q0,3.94,4.25,3.95h4.24c2.82,0,4.24-1.34,4.24-4V274.19H56.64a6.16,6.16,0,0,0-4.24,2.05V258.48q2.12,3.94,4.24,3.95h10.6c1.47,0,2.89-1.32,4.24-3.95Z" transform="translate(-1 -1)"/><path class="cls-6" d="M96.93,307.81q0,2,4.25,3.95H80c2.82-1.31,4.24-2.63,4.24-3.95V228.88c0-1.32-1.42-2.63-4.24-3.95q8.48-.08,12.81-2a22.42,22.42,0,0,1,10-2h.51q8.48,0,17,7.9,4.16,3.94,6.28,3.94-4.25,2-4.25,4v21.71c0,1.32-.67,3.95-2,7.89l-2.29,2,2.29,2c1.36,3.95,2,6.58,2,7.89v29.6q0,2,4.25,3.95H105.42q4.24-2,4.24-3.95V278.13q0-3.86-4.24-3.86h-4.24q-4.25,0-4.25,3.94Zm8.49-45.38q4.24,0,4.24-3.87V236.69q0-3.87-4.24-3.87h-4.24q-4.25,0-4.25,3.87v21.79q0,3.94,4.25,3.95Z" transform="translate(-1 -1)"/><path class="cls-6" d="M162.68,262.43c1.47,0,2.89-1.32,4.24-3.95v19.73c-1.41-2.63-2.83-3.94-4.24-3.94l-14.84-.08v25.73q0,3.94,4.24,3.95h4.24q4.25,0,4.24-4V286.11h12.73v21.7q0,2,4.24,3.95h-.6q-8.06,0-12,2a27.37,27.37,0,0,1-10.69,2,26.06,26.06,0,0,1-10.52-2q-4.16-2-12.22-2h-.59q4.24-2,4.24-3.95V228.88c0-1.32-1.41-2.63-4.24-3.95q8.48-.08,12.81-2a22.42,22.42,0,0,1,10-2h1a23.57,23.57,0,0,1,10.18,2q4.16,1.89,12.64,2c-2.83,1.32-4.24,2.63-4.24,3.95v21.71H160.56v-13.9q0-3.87-4.24-3.87h-4.24q-4.25,0-4.24,3.87v25.74Z" transform="translate(-1 -1)"/><path class="cls-6" d="M213.58,262.43c1.47,0,2.89-1.32,4.24-3.95v19.73q-2.12-3.94-4.24-3.94l-14.84-.08v25.73q0,3.94,4.24,3.95h4.24q4.25,0,4.24-4V286.11h12.73v21.7q0,2,4.24,3.95h-.6q-8.06,0-12,2a27.37,27.37,0,0,1-10.69,2,26.06,26.06,0,0,1-10.52-2q-4.16-2-12.22-2h-.59q4.24-2,4.24-3.95V228.88c0-1.32-1.41-2.63-4.24-3.95q8.47-.08,12.81-2a22.42,22.42,0,0,1,10-2h1a23.57,23.57,0,0,1,10.18,2q4.16,1.89,12.64,2c-2.83,1.32-4.24,2.63-4.24,3.95v21.71H211.46v-13.9q0-3.87-4.24-3.87H203q-4.24,0-4.24,3.87v25.74Z" transform="translate(-1 -1)"/><path class="cls-6" d="M249.64,252.56v55.25q0,2,4.24,3.95H232.67q4.25-2,4.24-3.95V228.88c0-1.32-1.41-2.63-4.24-3.95h21.21c-2.83,1.32-4.24,2.63-4.24,3.95v3.94l12.72,11.85V228.88c0-1.32-1.41-2.63-4.24-3.95h21.21c-2.83,1.32-4.24,2.63-4.24,3.95v78.93q0,2,4.24,3.95H258.12q4.25-2,4.24-3.95V264.4Z" transform="translate(-1 -1)"/><path class="cls-6" d="M287.81,228.88c0-1.32-1.41-2.63-4.24-3.95q8.49-.08,12.81-2a22.45,22.45,0,0,1,10-2h.51q8.49,0,17.05,7.9c2.77,2.63,4.87,3.94,6.28,3.94q-4.25,2-4.24,4v21.71q0,2-2,7.89l-2.29,2,2.29,2q2,5.93,2,7.89v21.71c0,1.32,1.41,2.63,4.24,3.95-1.41,0-3.51,1.31-6.28,3.94q-8.56,7.9-17.05,7.9h-.51a22.45,22.45,0,0,1-10-2q-4.32-1.89-12.81-2,4.24-2,4.24-3.95ZM309,262.43q4.25,0,4.24-3.87V236.69q0-3.87-4.24-3.87h-4.24q-4.25,0-4.24,3.87v21.79q0,3.94,4.24,3.95Zm-4.24,11.84q-4.25,0-4.24,3.94V300q0,3.87,4.24,3.87H309q4.25,0,4.24-3.87V278.13q0-3.86-4.24-3.86Z" transform="translate(-1 -1)"/><path class="cls-6" d="M376.89,307.81q0,2,4.24,3.95h-.59q-8.07,0-12.05,2a27.34,27.34,0,0,1-10.69,2,26.06,26.06,0,0,1-10.52-2q-4.15-2-12.21-2h-.6q4.25-2,4.24-3.95V228.88c0-1.32-1.41-2.63-4.24-3.95q8.49-.08,12.81-2a22.45,22.45,0,0,1,10-2h1a23.54,23.54,0,0,1,10.18,2q4.15,1.89,12.64,2c-2.83,1.32-4.24,2.63-4.24,3.95Zm-12.73-71.12q0-3.87-4.24-3.87h-4.24q-4.24,0-4.24,3.87v63.23q0,3.94,4.24,3.95h4.24q4.24,0,4.24-4Z" transform="translate(-1 -1)"/><path class="cls-6" d="M402.34,270.32l-12.72-19.73V228.88c0-1.32-1.42-2.63-4.25-3.95h21.21c-2.83,1.32-4.24,2.63-4.24,3.95v17.76l6.36,9.87,6.37-9.87V228.88c0-1.32-1.42-2.63-4.25-3.95H432c-2.83,1.32-4.24,2.63-4.24,3.95v21.71l-12.72,19.73v37.49q0,2,4.24,3.95H398.1q4.25-2,4.24-3.95Z" transform="translate(-1 -1)"/><path class="cls-6" d="M478.69,319.65q0,2,4.24,4h-.59q-8.05,0-12,2a27.3,27.3,0,0,1-10.69,2,26.06,26.06,0,0,1-10.52-2q-4.15-2-12.21-2h-.6q4.25-2,4.25-4V280.19q0-3.94-4.25-7.9l21.21,15.79q-4.25,0-4.24,3.95v19.73q0,3.94,4.24,3.95h4.24q4.25,0,4.25-4V280.19L440.52,264.4V217c0-1.32-1.42-2.63-4.25-3.95q8.49-.08,12.81-2a22.45,22.45,0,0,1,10-2h1a23.54,23.54,0,0,1,10.18,2q4.15,1.89,12.64,2c-2.83,1.32-4.24,2.63-4.24,3.95v39.47q0,3.94,4.24,7.89l-21.21-15.79q4.25,0,4.25-3.94V224.85q0-3.87-4.25-3.87h-4.24q-4.25,0-4.24,3.87v31.66l25.45,15.78Z" transform="translate(-1 -1)"/><path class="cls-7" d="M205,184.47h15.32L238,214.81H223.53l-2.61-5.19H204.38l-2.61,5.19H187.26Zm3.12,17.75h9.08l-4.53-9Z" transform="translate(-1 -1)"/><path class="cls-7" d="M270.86,184.45c6.81-.07,12.59,5.19,12.49,11.47a10.47,10.47,0,0,1-2,6.21,12.26,12.26,0,0,1-5.22,4.15l7.21,8.51H269.63l-6.22-7.4H251.9v7.4H239V184.45Zm-19,8.87v5.17h15.71a2.85,2.85,0,0,0,2-.74,2.39,2.39,0,0,0,.84-1.83,2.7,2.7,0,0,0-2.83-2.6Z" transform="translate(-1 -1)"/><path class="cls-7" d="M300.78,214.81V194.09H285.46v-9.62H329v9.62H313.66v20.72Z" transform="translate(-1 -1)"/><path class="cls-7" d="M425.46,326.16c-27.89,1.45-55.78,2.2-83.67,2.72-13.94.32-27.89.39-41.83.58l-41.84.19-41.83-.18c-13.95-.19-27.89-.26-41.84-.58-27.89-.51-55.78-1.28-83.67-2.73,27.89-1.46,55.78-2.22,83.67-2.73,14-.33,27.89-.39,41.84-.59l41.83-.18,41.84.19c13.94.19,27.89.26,41.83.59C369.68,324,397.57,324.71,425.46,326.16Z" transform="translate(-1 -1)"/></g></g></svg>