<?xml version="1.0" encoding="utf-8"?>
<!-- Generator: Adobe Illustrator 22.1.0, SVG Export Plug-In . SVG Version: 6.00 Build 0)  -->
<svg version="1.1" id="Layer_1" xmlns="http://www.w3.org/2000/svg" xmlns:xlink="http://www.w3.org/1999/xlink" x="0px" y="0px"
	 viewBox="0 0 618.7 487.3" style="enable-background:new 0 0 618.7 487.3;" xml:space="preserve">
<style type="text/css">
	.st0{fill:#F0F0F0;}
	.st1{fill:#FFFFFF;}
	.st2{display:none;fill:#F50057;}
	.st3{fill:#FFB6B6;}
	.st4{fill:#3F3D56;}
	.st5{fill:#2F2E41;}
	.st6{fill:#FFB7B7;}
	.st7{fill:#CCCCCC;}
	.st8{display:none;fill:#FFFFFF;}
	.st9{display:none;fill:#3F3D56;}
	.st10{fill:#CACACA;}
	.st11{fill:#F50057;}
	.st12{fill:#E6E6E6;}
</style>
<path class="st0" d="M148.5,264.2c-4.9-26.4,2.8-56.5,24.4-72.5c-1.2,29.2,7.9,57.9,25.8,81c6.9,8.9,15.6,18.1,15.3,29.3
	c-0.2,7-4,13.5-9,18.5c-5,4.9-11.2,8.5-17.2,12L187,334C169.1,313.9,153.5,290.6,148.5,264.2z"/>
<path class="st1" d="M173.4,192.1c-9.1,20.3-11.5,43-7,64.8c0.9,4.7,2.5,9.2,4.8,13.4c2.4,4,5.8,7.3,9.9,9.6c3.8,2.2,7.9,4,11.1,7
	c3.2,3.2,5,7.7,4.7,12.2c-0.2,5.6-2.3,10.9-4.6,15.9c-2.5,5.6-5.3,11.4-5.1,17.7c0,0.8-1.2,0.7-1.2,0c-0.3-11,7.6-19.8,9.4-30.3
	c0.8-4.9,0.2-10.1-3.3-13.9c-3-3.3-7.3-5.2-11.1-7.3c-4-2.1-7.5-5.2-10-9c-2.5-4.1-4.3-8.5-5.3-13.2c-2.4-10.5-3.2-21.3-2.3-32
	c1-12.3,4-24.2,9-35.5C172.7,190.8,173.7,191.4,173.4,192.1L173.4,192.1z"/>
<path class="st1" d="M164.5,250c-7.8,0.5-14.8-4.6-16.6-12.2c-0.2-0.7,1-1,1.1-0.3c1.7,7.1,8.2,11.9,15.4,11.3
	C165.3,248.7,165.3,249.9,164.5,250L164.5,250z"/>
<path class="st1" d="M179,279.1c5.1-5.8,7.8-13.3,7.7-21c0-0.8,1.2-0.7,1.2,0c0.2,8-2.7,15.8-8,21.8
	C179.3,280.5,178.5,279.6,179,279.1L179,279.1z"/>
<path class="st1" d="M165.7,215.5c3,0.4,6-0.7,8-3c0.5-0.6,1.3,0.3,0.8,0.8c-2.2,2.5-5.5,3.8-8.8,3.3c-0.3,0-0.6-0.3-0.6-0.6
	C165.1,215.7,165.3,215.5,165.7,215.5L165.7,215.5z"/>
<path class="st0" d="M261.3,213.6c-0.3,0.4-0.6,0.7-0.9,1.1c-4,5-7.7,10.3-10.8,15.9c-0.3,0.4-0.5,0.9-0.7,1.3
	c-7.5,13.5-12.4,28.3-14.6,43.6c-0.8,6.1-1.2,12.2-1.1,18.4c0.1,8.5,1,17.7-1.6,25.5c-0.3,0.8-0.6,1.6-0.9,2.4L188.8,335
	c-0.1,0-0.2,0-0.3,0l-1.6,0.6c0-0.3,0-0.6-0.1-1c0-0.2,0-0.4,0-0.6c0-0.1,0-0.2,0-0.4c0,0,0-0.1,0-0.1c0-0.1,0-0.2,0-0.3
	c-0.1-1.8-0.2-3.7-0.3-5.5c0,0,0,0,0,0c-0.7-14.1-0.3-28.3,2.3-42.1c0.1-0.4,0.2-0.8,0.3-1.3c1.2-6.2,2.9-12.3,5.1-18.2
	c1.2-3.2,2.6-6.4,4.1-9.5c4-8,9.2-15.3,15.4-21.6c12.5-12.7,28.8-21.2,46.4-21.5C260.4,213.6,260.9,213.6,261.3,213.6z"/>
<path class="st1" d="M261.4,214.2c-19.5,10.8-35.1,27.4-44.6,47.5c-2.1,4.3-3.6,8.9-4.2,13.6c-0.5,4.6,0.2,9.3,2.1,13.6
	c1.7,4,3.9,7.9,4.6,12.3c0.7,4.5-0.7,9.1-3.6,12.6c-3.5,4.4-8.4,7.3-13.3,9.9c-5.4,2.9-11.1,5.9-14.7,11c-0.4,0.6-1.4-0.1-0.9-0.7
	c6.4-8.9,18-11.2,25.7-18.5c3.6-3.4,6.2-7.9,5.7-13.1c-0.4-4.5-2.7-8.5-4.4-12.5c-1.9-4.1-2.8-8.7-2.6-13.2
	c0.4-4.8,1.7-9.4,3.7-13.8c4.4-9.8,10.2-18.9,17.4-27c8.1-9.2,17.8-16.9,28.6-22.9C261.6,212.7,262.1,213.8,261.4,214.2L261.4,214.2
	z"/>
<path class="st1" d="M219.5,255c-6.5-4.2-9-12.6-5.9-19.7c0.3-0.7,1.4-0.3,1.1,0.4c-2.9,6.6-0.6,14.4,5.5,18.3
	C220.9,254.5,220.2,255.4,219.5,255L219.5,255z"/>
<path class="st1" d="M213.6,287c7.5-1.5,14.2-5.9,18.7-12.1c0.4-0.6,1.4,0.1,0.9,0.7c-4.7,6.5-11.7,11-19.5,12.6
	C213,288.3,212.8,287.1,213.6,287L213.6,287z"/>
<path class="st1" d="M241.2,228.2c2.1,2.1,5.2,3,8.2,2.4c0.7-0.2,0.9,1,0.2,1.2c-3.3,0.7-6.7-0.3-9.1-2.7c-0.2-0.2-0.3-0.6-0.1-0.8
	C240.6,228,241,228,241.2,228.2L241.2,228.2z"/>
<path class="st2" d="M326.9,69.1c0.1,0.6,0.2,1.2,0.3,1.9l49,28.2l11.9-6.9l12.7,16.6l-19.9,14.2c-3.3,2.4-7.8,2.2-10.9-0.3
	L319.4,83c-6.2,2.3-13.1-0.9-15.4-7.1c-2.3-6.2,0.9-13.1,7.1-15.4s13.1,0.9,15.4,7.1C326.7,68.1,326.8,68.6,326.9,69.1L326.9,69.1z"
	/>
<path class="st3" d="M420.8,39.7c-0.6,0.3-1.1,0.5-1.7,0.7l-15.1,54.5l9.6,9.8l-12.9,16.4L382,105.5c-3.1-2.6-4.1-6.9-2.5-10.7
	l25.9-58.9c-3.8-5.4-2.4-12.9,3-16.7c5.4-3.8,12.9-2.4,16.7,3s2.4,12.9-3,16.7C421.6,39.2,421.2,39.5,420.8,39.7L420.8,39.7z"/>
<path class="st4" d="M385.5,108.2c-0.4-1.4-0.1-3,0.8-4.2l14.8-21.1c3.5-7,12.1-9.9,19.1-6.4c7,3.5,9.9,12,6.4,19l-8.1,24.5
	c-0.9,2.7-3.8,4.2-6.5,3.3c-0.2-0.1-0.5-0.2-0.7-0.3l-23.2-11.6C386.8,110.8,385.9,109.6,385.5,108.2z"/>
<polygon class="st3" points="412.9,459.6 399,459.6 392.4,406.1 412.9,406.1 "/>
<polygon class="st3" points="534.1,451 520.7,454.5 500.9,404.4 520.7,399.3 "/>
<polygon class="st3" points="457.8,131.4 460.9,139.6 460.3,147.8 398.9,169 401.9,133.3 408.8,125.2 "/>
<g>
	<path class="st5" d="M404.2,24.5c3.3-10.4,10.6-19.9,20.9-23.4c10.2-3.5,25.2,1.8,32.9,9.5c14.1,14,17.5,62.2,7.8,77.4
		c-1.9-0.1-8.6-0.2-10.5-0.2l-2.8-9.2v9.1c-15.2-0.5-31-0.2-46.8,0.1C404.4,77,401,34.8,404.2,24.5z"/>
	<circle class="st6" cx="425.4" cy="36.1" r="21.9"/>
	<path class="st5" d="M410.3,7.5c13-7.9,29.9-3.8,37.9,9.2c2.7,4.5,4.1,9.6,4,14.9c-12,3.1-24.7,4.3-38.2,0.7l-3.1-7.6l-1.8,7.6
		c-4.1,2.9-8.1,2.9-12,0C396.8,22.3,401.8,12.8,410.3,7.5z"/>
</g>
<path class="st5" d="M419.1,485.9h-9.8l-1.8-9.3l-4.5,9.3h-26.1c-3.2,0-5.9-2.6-5.9-5.9c0-1.9,0.9-3.7,2.5-4.8l20.8-14.4v-9.4
	l21.9,1.3L419.1,485.9z"/>
<path class="st5" d="M548,474.5l-9.5,2.5l-4-8.5l-2,10.1l-25.2,6.6c-3.1,0.8-6.3-1.1-7.1-4.2c-0.5-1.9,0-3.8,1.2-5.3l16.5-19.2
	l-2.4-9.1l21.5-4.3L548,474.5z"/>
<path class="st5" d="M532.4,417.4l-40.6-83.4l-12.7-101.6c8.8-16.3-7.5-49.5-7.5-49.5v-13.9l-63.2,11.9v0
	c-12.9,35.3-19.2,72.6-18.5,110.2l2.5,135h-0.8c-2.8,0-5,2.2-5,5s2.2,5,5,5h25c2.8,0,5-2.2,5-5s-2.2-5-5-5h-0.6l17.9-171.8
	l20.9,84.8l50.4,78c-2.7,0.2-4.8,2.6-4.6,5.4c0.2,2.6,2.4,4.6,5,4.6h25c2.8,0,5-2.2,5-5C535.6,420,534.3,418.1,532.4,417.4z"/>
<path class="st4" d="M477.3,191.4L477.3,191.4c-0.4-1.7-1.9-2.9-3.6-3c-0.8-9.5-6.3-70.6-6.5-72.4l0-0.1l-1.6-34.1
	c-0.1-2.6-2.1-4.6-4.7-4.8l-8.4-0.6c-0.2,0-0.4-0.2-0.4-0.4c0-3.9-3.2-7.1-7.1-7.1l0,0H420c-3.3,0-6.2,2.5-6.6,5.8
	c0,0.2-0.2,0.4-0.4,0.4l0,0C407.1,75,402,79.2,401,85c-3.4,19.8-10.2,64.8-6.9,89.9c1.2,8.7,0.6,21.8,0.2,29.1
	c-0.1,1.4,0.4,2.8,1.3,3.9c-2.1,0.6-3.3,2.7-2.8,4.8h0c0.5,2.1,2.7,3.4,4.9,2.9l76.6-19.3C476.5,195.7,477.8,193.5,477.3,191.4z"/>
<path class="st1" d="M350.7,334.5c0-4.6-3.4-8.5-7.9-9.3L206.9,303c-1.3-0.2-2.6-0.2-3.9,0.2l-31.8,8.2l-18.3,4.7l-33.7,8.7
	c-4.2,1.1-7.1,4.9-7.1,9.2v142.3c0,4.5,3.1,8.3,7.5,9.3l138.3-1.6c0.6,0.1,1.3,0.2,2,0.2c1,0,1.9-0.1,2.9-0.4l82.2,2
	c4-1.2,6.7-5,6.6-9.1L350.7,334.5z"/>
<path class="st7" d="M350.7,334.5c0-4.6-3.4-8.5-7.9-9.3L206.9,303c-1.3-0.2-2.6-0.2-3.9,0.2l-31.8,8.2l-18.3,4.7l-33.7,8.7
	c-4.2,1.1-7.1,4.9-7.1,9.2v142.3c0,4.5,3.1,8.3,7.5,9.3l138.3-1.6c0.6,0.1,1.3,0.2,2,0.2c1,0,1.9-0.1,2.9-0.4l82.2,2
	c4-1.2,6.7-5,6.6-9.1L350.7,334.5z M344.2,483.6l-82.2,2c-1.2,0.4-2.4,0.4-3.6,0.2l-138.3-2.4c-3.3-0.7-5.6-3.6-5.6-7V334
	c0-3,1.9-5.7,4.7-6.7c0.2-0.1,0.4-0.2,0.7-0.2l35.7-9.2l21.1-5.5l27.1-7c0.6-0.2,1.2-0.2,1.8-0.2c0.4,0,0.8,0,1.2,0.1l135.8,22.3
	c2.2,0.4,4.1,1.7,5.2,3.7c0.5,1,0.8,2.1,0.8,3.2l0.9,142.2C349.3,479.9,347.2,482.6,344.2,483.6z"/>
<path class="st7" d="M347.5,331.3c-0.1,0.1-0.2,0.1-0.3,0.1l-39.9,10.8l-12.4,3.4l-35.4,9.6c-0.1,0-0.2,0-0.3,0c-0.1,0-0.1,0-0.2,0
	l-142.6-26l-0.5-0.1c-0.6-0.1-1.1-0.7-0.9-1.4c0.1-0.6,0.7-1.1,1.4-1l2.9,0.5l140,25.5l30.5-8.2l17.1-4.6l39.3-10.6l0.6-0.2
	c0.6-0.1,1.1,0.1,1.4,0.6c0,0.1,0.1,0.1,0.1,0.2C348.2,330.5,348,331.1,347.5,331.3z"/>
<path class="st7" d="M260.3,484.5c-0.7,0-1.2-0.5-1.2,2.8L258,358.1c0-4.7,0.5-5.2,1.2-5.2h0c0.7,0,1.2,0.5,1.2,5.2l1.2,129.3
	C261.5,484,261,484.5,260.3,484.5L260.3,484.5z"/>
<path class="st7" d="M307.6,486l-12.8,0.1l-5.2-141.5L155.8,318c-0.1,0-0.3-0.1-0.4-0.1c-1-0.3-1.9-0.9-2.5-1.8l18.3-4.7l5.4,1.1
	l126.9,25.2c1.4,0.3,2.5,1.1,3.2,2.3C307,340.7,307.6,485.2,307.6,486z"/>
<path class="st8" d="M409.9,75.5c0-3.5-2.6-6.4-6-7L301.6,51.7c-1-0.2-2-0.1-2.9,0.1l-24,6.2l-13.8,3.6l-25.4,6.6
	c-3.2,0.8-5.4,3.7-5.4,6.9V159c0,3.4,2.4,6.3,5.7,7L340,188.1c0.5,0.1,1,0.2,1.5,0.2c0.7,0,1.5-0.1,2.2-0.3l61.9-19.6
	c3-0.9,5-3.7,5-6.9L409.9,75.5z"/>
<path class="st2" d="M300.4,57.8c-0.1,0-0.1,0-0.2,0L237,74.2c-0.4,0.1-0.7,0.5-0.7,0.9V159c0,0.4,0.3,0.8,0.7,0.9L341.3,182
	c0.2,0,0.3,0,0.5,0l61.9-19.6c0.4-0.1,0.6-0.5,0.6-0.9l-0.7-86c0-0.4-0.3-0.8-0.7-0.9L300.5,57.9C300.5,57.9,300.4,57.8,300.4,57.8z
	"/>
<path class="st9" d="M409.9,75.5c0-3.5-2.6-6.4-6-7L301.6,51.7c-1-0.2-2-0.1-2.9,0.1l-24,6.2l-13.8,3.6l-25.4,6.6
	c-3.2,0.8-5.4,3.7-5.4,6.9V159c0,3.4,2.4,6.3,5.7,7L340,188.1c0.5,0.1,1,0.2,1.5,0.2c0.7,0,1.5-0.1,2.2-0.3l61.9-19.6
	c3-0.9,5-3.7,5-6.9L409.9,75.5z M405.1,166.7l-61.9,19.6c-0.9,0.3-1.8,0.3-2.7,0.1l-104.3-22.2c-2.5-0.5-4.2-2.7-4.2-5.2V75.1
	c0-2.2,1.4-4.3,3.5-5c0.2-0.1,0.3-0.1,0.5-0.2l26.9-6.9l15.9-4.1l20.4-5.3c0.4-0.1,0.9-0.2,1.3-0.2c0.3,0,0.6,0,0.9,0.1l102.4,16.8
	c1.7,0.3,3.1,1.3,3.9,2.8c0.4,0.8,0.6,1.6,0.6,2.4l0.7,86C408.8,163.9,407.3,166,405.1,166.7L405.1,166.7z"/>
<path class="st9" d="M407.5,73.1c-0.1,0-0.1,0.1-0.2,0.1l-30.1,8.1l-9.4,2.5l-26.7,7.2c-0.1,0-0.2,0-0.2,0c-0.1,0-0.1,0-0.2,0
	L233.3,71.5l-0.4-0.1c-0.5-0.1-0.8-0.6-0.7-1c0.1-0.5,0.6-0.8,1-0.7l2.2,0.4l105.5,19.2l23-6.2l12.9-3.5l29.6-8l0.5-0.1
	c0.4-0.1,0.9,0.1,1,0.5c0,0,0,0.1,0.1,0.1C408,72.5,407.9,72.9,407.5,73.1z"/>
<path class="st9" d="M341.8,188.5c-0.5,0-0.9-0.4-0.9-0.9L340,90.2c0-0.5,0.4-0.9,0.9-0.9h0c0.5,0,0.9,0.4,0.9,0.9l0.9,97.4
	C342.7,188.1,342.3,188.5,341.8,188.5L341.8,188.5z"/>
<path class="st9" d="M377.2,176.6l-9.4,2.5l-4-96.1L263.1,63c-0.1,0-0.2,0-0.3-0.1c-0.8-0.2-1.5-0.7-1.9-1.4l13.8-3.6l4,0.8l95.6,19
	c1,0.2,1.9,0.8,2.4,1.7C377,80.1,377.2,176,377.2,176.6z"/>
<path class="st2" d="M373,121.8c0.5,0.4,0.9,0.9,1.3,1.3l56.1-6.6l5.5-12.6l20.1,5.8l-7.5,23.2c-1.2,3.9-4.9,6.4-8.9,6.3l-64.3-1.8
	c-3.6,5.5-11,7.1-16.6,3.5c-5.5-3.6-7.1-11-3.5-16.6c3.6-5.5,11-7.1,16.6-3.5C372.2,121.2,372.6,121.5,373,121.8L373,121.8z"/>
<path class="st3" d="M408,170.9c0.6-0.2,1.2-0.4,1.8-0.5l23.1-51.6l-8-11.1l15.2-14.3l16.1,18.3c2.7,3,3,7.5,0.9,10.9l-34.5,54.3
	c2.9,5.9,0.5,13.1-5.5,16c-5.9,2.9-13.1,0.5-16-5.5c-2.9-5.9-0.5-13.1,5.5-16C407.1,171.2,407.6,171,408,170.9L408,170.9z"/>
<path class="st4" d="M428,117.5c-0.6-1.4-5.1-6.6-4.5-8l4-21.5c2.2-7.6,22.6-13.8,30.1-11.6c7.5,2.2,11.8,10.1,9.7,17.6l-3.6,25.6
	c-0.4,2.8-3,4.8-5.8,4.4c-0.2,0-0.5-0.1-0.7-0.2l-24.9-7.3C430.9,116.1,428.6,118.9,428,117.5z"/>
<path class="st10" d="M617.5,487H1.2c-0.7,0-1.2-0.5-1.2-1.2c0-0.7,0.5-1.2,1.2-1.2h616.3c0.7,0,1.2,0.5,1.2,1.2
	C618.7,486.5,618.1,487,617.5,487z"/>
<ellipse transform="matrix(0.9951 -9.853763e-02 9.853763e-02 0.9951 -31.4119 13.4159)" class="st11" cx="120.1" cy="324.7" rx="35.8" ry="35.8"/>
<path class="st8" d="M115.2,343.4c-1.3,0-2.4-0.6-3.2-1.6l-9.8-13c-1.3-1.8-1-4.3,0.8-5.6c1.8-1.3,4.3-1,5.6,0.8c0,0,0,0,0,0
	l6.4,8.5l16.4-24.6c1.2-1.8,3.7-2.3,5.5-1.1c1.8,1.2,2.3,3.7,1.1,5.5c0,0,0,0,0,0l-19.5,29.3c-0.7,1.1-1.9,1.7-3.2,1.8
	C115.3,343.3,115.3,343.4,115.2,343.4z"/>
<g>
	<path class="st1" d="M107.3,342.2c-0.3,0-0.8-0.2-1.3-0.4c-2.3-1-3-3.9-1.4-5.9l3.7-4.5l18.9-22.8c1.7-2,5-2,6.5,0.5
		c0.9,1.4,0.7,3.3-0.4,4.6l0,0l-22.5,27.1C110,341.8,108.7,342.3,107.3,342.2C107.4,342.2,107.3,342.2,107.3,342.2z"/>
	<path class="st1" d="M130.2,342.5c-1.3,0.1-2.6-0.5-3.4-1.5L105,313.3l0,0c-1-1.3-1.2-3.2-0.2-4.6c1.6-2.4,4.9-2.4,6.5-0.3
		l18.3,23.3l3.5,4.6c1.5,2,0.8,4.9-1.6,5.9C131,342.4,130.5,342.5,130.2,342.5C130.2,342.5,130.2,342.5,130.2,342.5z"/>
</g>
<path class="st1" d="M272.6,134.5c-0.1,0-0.2,0-0.3,0l-31-7c-0.8-0.2-1.3-1-1.1-1.8s1-1.3,1.8-1.1l31,7c0.8,0.2,1.3,1,1.1,1.8
	C273.9,134,273.3,134.5,272.6,134.5z"/>
<path class="st12" d="M153.3,416.2c-0.1,0-0.2,0-0.3,0l-31.8-0.5c-0.8,0-1.5-0.7-1.5-1.5c0-0.8,0.7-1.5,1.5-1.5l31.8,0.5
	c0.8,0,1.5,0.7,1.5,1.5C154.5,415.5,154,416.1,153.3,416.2L153.3,416.2z"/>
<path class="st12" d="M164.3,433.2c-0.1,0-0.2,0-0.3,0l-31.8-0.5c-0.8,0-1.5-0.7-1.5-1.5c0-0.8,0.7-1.5,1.5-1.5l31.8,0.5
	c0.8,0,1.5,0.7,1.5,1.5C165.5,432.5,165,433.1,164.3,433.2L164.3,433.2z"/>
</svg>
