<svg id="Calque_1" xmlns="http://www.w3.org/2000/svg" xmlns:xlink="http://www.w3.org/1999/xlink" x="0px" y="0px" viewBox="0 0 849.63 166.36" xml:space="preserve" class="jss2"><style type="text/css">
	.st0{fill:#003D7C;}
	.st1{fill:#00B2BB;}
</style><g><g><path class="st0" d="M394.06,142.7c0,4.56-3.5,7.15-9.45,7.15c-3.46,0-7.11-0.11-10.94-0.33v-24.8c4.19-0.11,7.66-0.18,10.39-0.18 c5.69,0,8.9,2.37,8.9,6.6c0,2.81-1.75,5.03-4.52,5.8C391.9,137.64,394.06,139.9,394.06,142.7z M381.22,129.1h-2.3v5.98h5.14 c2.37,0,3.94-1.24,3.94-3.14c0-2.04-1.46-2.88-4.56-2.88C382.97,129.07,382.24,129.07,381.22,129.1z M388.88,142.16 c0-1.79-1.57-2.81-4.08-2.81h-5.87v5.8c2.44,0.11,4.12,0.15,5.03,0.15C387.24,145.29,388.88,144.24,388.88,142.16z"></path><path class="st0" d="M420.74,149.52h-4.38l-6.38-13.24l-0.88,13.24h-5.1l1.39-24.8h4.85l8.31,18.31l8.28-18.31h4.89l1.39,24.8 h-5.14l-0.87-13.24L420.74,149.52z"></path><path class="st0" d="M464.46,130.23c-3.17-0.66-5.54-0.98-7.15-0.98c-2.84,0-5.03,0.73-6.6,2.19c-1.53,1.42-2.3,3.32-2.3,5.62 c0,2.44,0.77,4.38,2.33,5.87c1.57,1.49,3.61,2.22,6.16,2.22c1.6,0,4.12-0.36,7.55-1.06l0.91,4.63c-3.1,0.91-6.02,1.35-8.75,1.35 c-4.12,0-7.47-1.2-9.99-3.57c-2.52-2.37-3.79-5.51-3.79-9.41c0-3.87,1.28-6.96,3.79-9.34c2.52-2.37,5.83-3.57,9.95-3.57 c2.88,0,5.83,0.37,8.79,1.13L464.46,130.23z"></path><path class="st0" d="M492.75,134.75v4.74h-11.52v5.25h13.09v4.78h-18.34v-24.8h18.34v4.78h-13.09v5.25H492.75z"></path><path class="st0" d="M542.08,147.37c-4.34,1.79-8.2,2.7-11.52,2.7c-3.97,0-7.18-1.2-9.63-3.57c-2.44-2.41-3.65-5.58-3.65-9.48 c0-3.83,1.28-6.93,3.79-9.3c2.55-2.37,5.91-3.54,10.1-3.54c2.88,0,5.76,0.37,8.68,1.09l-0.98,4.85c-3.68-0.62-6.13-0.91-7.26-0.91 c-2.66,0-4.78,0.73-6.42,2.15c-1.6,1.42-2.41,3.32-2.41,5.65c0,2.37,0.73,4.3,2.15,5.8c1.42,1.46,3.32,2.19,5.65,2.19 c1.9,0,4.12-0.33,6.64-0.95v-4.38h-8.42v-4.7h13.27V147.37z"></path><path class="st0" d="M561.15,141.94h-2.92v7.58h-5.25v-24.8c3.87-0.15,7.04-0.22,9.55-0.22c6.24,0,10.14,3.14,10.14,8.64 c0,3.25-1.75,5.94-4.67,7.51l6.27,8.86h-6.35l-5.1-7.58H561.15z M562.97,137.34c2.63,0,4.52-1.71,4.52-4.19 c0-2.66-1.82-3.94-4.89-3.94c-1.93,0-3.39,0-4.38,0.04v8.1H562.97z"></path><path class="st0" d="M595.35,124.18c3.9,0,7.11,1.2,9.55,3.57c2.48,2.37,3.72,5.51,3.72,9.37c0,3.87-1.24,7-3.72,9.37 c-2.44,2.37-5.65,3.57-9.55,3.57c-3.9,0-7.11-1.2-9.59-3.57c-2.44-2.37-3.68-5.51-3.68-9.37c0-3.87,1.24-7,3.68-9.37 C588.24,125.38,591.44,124.18,595.35,124.18z M595.35,145.15c2.26,0,4.12-0.73,5.58-2.22c1.46-1.5,2.19-3.43,2.19-5.8 c0-2.37-0.73-4.3-2.19-5.76c-1.46-1.49-3.32-2.22-5.58-2.22s-4.12,0.73-5.58,2.22c-1.46,1.46-2.19,3.39-2.19,5.76 c0,2.37,0.73,4.3,2.19,5.8C591.23,144.42,593.09,145.15,595.35,145.15z"></path><path class="st0" d="M641.29,138.62c0,3.54-1.02,6.34-3.1,8.39c-2.08,2.04-4.81,3.06-8.28,3.06c-3.46,0-6.2-1.02-8.28-3.06 c-2.04-2.04-3.06-4.85-3.06-8.39v-13.89h5.25v13.89c0,4.08,2.33,6.53,6.09,6.53c3.68,0,6.09-2.44,6.09-6.53v-13.89h5.29V138.62z"></path><path class="st0" d="M668.92,126.8c1.93,1.57,2.88,3.72,2.88,6.42s-0.98,4.89-2.92,6.53c-1.93,1.64-4.45,2.48-7.55,2.48h-3.9v7.29 h-5.25v-24.8c3.61-0.22,6.64-0.33,9.15-0.33C664.47,124.4,666.99,125.2,668.92,126.8z M661.81,137.53c2.81,0,4.85-1.68,4.85-4.27 c0-2.52-1.97-4.05-4.85-4.05c-2.01,0-3.46,0.04-4.38,0.07v8.24H661.81z"></path></g><g><path class="st0" d="M41.56,86.05c0,9.02-7.18,14.22-18.91,14.22c-6.82,0-14.37-0.22-22.65-0.59V49.84 c8.14-0.29,15.32-0.44,21.7-0.44c11.22,0,17.88,4.84,17.88,13.27c0,5.64-3.37,10.26-8.65,11.8 C37.38,75.93,41.56,80.48,41.56,86.05z M12.31,59.52v10.99h8.72c4.18,0,6.96-2.27,6.96-5.79c0-3.45-2.64-5.2-7.84-5.2H12.31z  M29.46,84.29c0-3.23-2.78-5.06-7.18-5.06h-9.97v10.7c0.81,0,2.2,0.07,4.32,0.15c2.13,0.07,3.67,0.07,4.47,0.07 C26.68,90.15,29.46,88.18,29.46,84.29z"></path><path class="st0" d="M60.97,99.68H47.49l22.21-50.14H81.2l22.14,50.14H89.93l-3.44-8.21H64.34L60.97,99.68z M68.6,80.99H82.3 l-6.89-16.64L68.6,80.99z"></path><path class="st0" d="M159.62,99.68h-11.29l-23.16-28.95v28.95h-12.32V49.84h11.36l23.09,29.17V49.84h12.31V99.68z"></path><path class="st0" d="M185.41,99.68h-12.32V49.84h12.32v21.04h2.42l16.27-21.04h14.95l-18.1,23.24l19.28,26.61h-15.1L193.11,82.9 h-7.7V99.68z"></path><path class="st0" d="M272.81,48.61c-14.37,0-26.02,11.65-26.02,26.02c0,14.37,11.65,26.02,26.02,26.02S298.83,89,298.83,74.63 C298.83,60.26,287.18,48.61,272.81,48.61z M272.81,88.7c-7.77,0-14.07-6.3-14.07-14.07c0-7.77,6.3-14.07,14.07-14.07 s14.07,6.3,14.07,14.07C286.88,82.4,280.58,88.7,272.81,88.7z"></path><path class="st0" d="M342.85,71.54v11.22h-20.97v16.93h-12.31V49.84h36.58v10.92h-24.26v10.78H342.85z"></path><path class="st0" d="M387.16,99.68h-13.49l22.21-50.14h11.51l22.14,50.14h-13.41l-3.45-8.21h-22.14L387.16,99.68z M394.78,80.99 h13.71l-6.89-16.64L394.78,80.99z"></path><path class="st0" d="M472.32,71.54v11.22h-20.96v16.93h-12.32V49.84h36.58v10.92h-24.26v10.78H472.32z"></path><path class="st0" d="M502.8,85.39h-5.2v14.29h-12.31V49.84c6.82-0.29,13.49-0.44,20.01-0.44c13.12,0,20.96,6.3,20.96,17.74 c0,6.67-3.15,11.95-8.65,15.1l11.95,17.45H514.9l-9.16-14.29H502.8z M505.51,74.98c5.06,0,8.43-3.08,8.43-7.7 c0-4.84-3.01-7.26-8.94-7.26c-0.73,0-1.98,0-3.66,0.07h-3.74v14.88H505.51z"></path><path class="st0" d="M551.02,99.68h-12.39V49.84h12.39V99.68z"></path><path class="st0" d="M606.28,62.37c-6.82-1.32-11.73-1.98-14.66-1.98c-10.26,0-16.2,5.79-16.2,14.22c0,4.4,1.39,7.92,4.25,10.63 c2.86,2.71,6.67,4.03,11.29,4.03c3.52,0,8.65-0.66,15.32-1.98l2.05,10.78c-6.67,1.83-12.75,2.71-18.25,2.71 c-8.36,0-15.1-2.42-20.23-7.18c-5.06-4.76-7.62-11.07-7.62-18.91c0-7.77,2.57-14,7.62-18.76c5.13-4.76,11.87-7.18,20.23-7.18 c5.94,0,12.02,0.81,18.25,2.42L606.28,62.37z"></path><path class="st0" d="M629.43,99.68h-13.49l22.21-50.14h11.51l22.14,50.14h-13.41l-3.44-8.21h-22.14L629.43,99.68z M637.06,80.99 h13.7l-6.89-16.64L637.06,80.99z"></path></g><path class="st0" d="M829.33,21.9c-29.2-29.2-76.53-29.2-105.73,0c-29.2,29.2-29.2,76.53,0,105.73c29.2,29.2,76.53,29.2,105.73,0 C858.53,98.43,858.53,51.09,829.33,21.9z M818.76,107.08c-23.36,23.36-61.23,23.36-84.58,0s-23.36-61.23,0-84.58 s61.23-23.36,84.58,0S842.12,83.73,818.76,107.08z"></path><polygon class="st1" points="796.74,21.34 754.58,21.34 737.4,40.98 747.96,57.72 767.93,61.49 782.86,112.21 813.42,49.35  "></polygon></g></svg>