<svg xmlns="http://www.w3.org/2000/svg" xmlns:xlink="http://www.w3.org/1999/xlink" viewBox="0 0 601.4 292.1"><defs><style>.cls-1{fill:#94cc75;}.cls-2{fill:#39b24b;}.cls-3{fill:url(#linear-gradient);}.cls-4{fill:url(#linear-gradient-2);}.cls-5{fill:url(#linear-gradient-3);}.cls-6{fill:url(#linear-gradient-4);}.cls-7{fill:url(#linear-gradient-5);}.cls-8{fill:url(#linear-gradient-6);}</style><linearGradient id="linear-gradient" x1="213.22" y1="172.51" x2="213.22" y2="118.77" gradientUnits="userSpaceOnUse"><stop offset="0" stop-color="#fff"/><stop offset="0.12" stop-color="#d1f0fb"/><stop offset="0.3" stop-color="#92dbf6"/><stop offset="0.48" stop-color="#5ecaf2"/><stop offset="0.64" stop-color="#35bdef"/><stop offset="0.78" stop-color="#18b3ed"/><stop offset="0.91" stop-color="#06adeb"/><stop offset="1" stop-color="#00abeb"/></linearGradient><linearGradient id="linear-gradient-2" x1="348.52" y1="146.45" x2="348.52" y2="114.62" gradientUnits="userSpaceOnUse"><stop offset="0" stop-color="#fff"/><stop offset="0.09" stop-color="#e7f7fd"/><stop offset="0.54" stop-color="#6ccff3"/><stop offset="0.86" stop-color="#1eb5ed"/><stop offset="1" stop-color="#00abeb"/></linearGradient><linearGradient id="linear-gradient-3" x1="376.86" y1="152.15" x2="376.86" y2="100.86" gradientUnits="userSpaceOnUse"><stop offset="0" stop-color="#fff"/><stop offset="0.07" stop-color="#f2f9ee"/><stop offset="0.28" stop-color="#d0e9c3"/><stop offset="0.49" stop-color="#b6dca1"/><stop offset="0.68" stop-color="#a3d389"/><stop offset="0.85" stop-color="#98ce7a"/><stop offset="1" stop-color="#94cc75"/></linearGradient><linearGradient id="linear-gradient-4" x1="414.06" y1="156.22" x2="414.06" y2="87.22" gradientUnits="userSpaceOnUse"><stop offset="0" stop-color="#fff"/><stop offset="0.08" stop-color="#e1f5fd"/><stop offset="0.28" stop-color="#9ddff7"/><stop offset="0.46" stop-color="#65ccf3"/><stop offset="0.63" stop-color="#39bef0"/><stop offset="0.78" stop-color="#1ab4ed"/><stop offset="0.91" stop-color="#07adec"/><stop offset="1" stop-color="#00abeb"/></linearGradient><linearGradient id="linear-gradient-5" x1="440.39" y1="196.04" x2="440.39" y2="122.77" gradientUnits="userSpaceOnUse"><stop offset="0" stop-color="#fff"/><stop offset="0.06" stop-color="#ddf4fc"/><stop offset="0.16" stop-color="#aae3f8"/><stop offset="0.26" stop-color="#7cd4f5"/><stop offset="0.37" stop-color="#56c7f2"/><stop offset="0.48" stop-color="#37bdef"/><stop offset="0.59" stop-color="#1fb5ed"/><stop offset="0.71" stop-color="#0dafec"/><stop offset="0.84" stop-color="#03aceb"/><stop offset="1" stop-color="#00abeb"/></linearGradient><linearGradient id="linear-gradient-6" x1="121.67" y1="207.53" x2="121.67" y2="99.63" gradientUnits="userSpaceOnUse"><stop offset="0" stop-color="#fff"/><stop offset="0.08" stop-color="#cbeefb"/><stop offset="0.17" stop-color="#9cdef7"/><stop offset="0.26" stop-color="#72d0f4"/><stop offset="0.36" stop-color="#4fc5f1"/><stop offset="0.46" stop-color="#32bbef"/><stop offset="0.56" stop-color="#1cb4ed"/><stop offset="0.68" stop-color="#0cafec"/><stop offset="0.81" stop-color="#03aceb"/><stop offset="1" stop-color="#00abeb"/></linearGradient></defs><title>LogoBelProfVfinalAsset 2</title><g id="Layer_2" data-name="Layer 2"><g id="Layer_1-2" data-name="Layer 1"><path class="cls-1" d="M250.81,97.62c5.25-1.13,1.86-15.63.65-19C245.89,63.27,236.82,49.37,223.11,40a.4.4,0,0,1-.16-.5c.09-.26.25-.31.48-.16l16.32,10.11q12.93,8,13.8,8.62a61.33,61.33,0,0,1,16.63,18.47c9.67,16.3,14.67,33.26,14.42,52.1q-.19,15-.18,30a8.29,8.29,0,0,1-.78,3.7,1.07,1.07,0,0,1-1.45.49,1.09,1.09,0,0,1-.55-.64c-4.77-15-13.9-28.84-27.78-36.91-5.27-3.06-14.46-5.93-20.26-9-42.17-22.35-54.41-71.54-56-115.72a.55.55,0,0,1,.54-.57.54.54,0,0,1,.46.23c12.89,17.85,27.81,36.16,45.3,49a60.11,60.11,0,0,1,7.64,6.31C241.82,66.59,248.07,82,249.89,97a.76.76,0,0,0,.85.67ZM194.48,46.45c1,23.08,11,47.11,31.08,58.88q14.85,8.67,29.95,16.9a80.19,80.19,0,0,1,21.18,16.64,5.26,5.26,0,0,0,2.45,1.59,1,1,0,0,0,1.21-.67,1,1,0,0,0-.11-.79,77.9,77.9,0,0,0-14.35-16.81q-2.52-2.22-12.14-8.85a185.62,185.62,0,0,1-38.53-35.53c-10.09-12.36-17.8-26.86-16.93-43a11.41,11.41,0,0,0-.53-2.49.76.76,0,0,0-.9-.58.73.73,0,0,0-.5.37C193.79,36.75,194.21,40.17,194.48,46.45Z"/><path class="cls-2" d="M225.56,105.33c-20.13-11.77-30.11-35.8-31.08-58.88-.27-6.28-.69-9.7,1.88-14.31a.74.74,0,0,1,1-.29.76.76,0,0,1,.37.5,11.41,11.41,0,0,1,.53,2.49c-.87,16.11,6.84,30.61,16.93,43a185.62,185.62,0,0,0,38.53,35.53q9.63,6.63,12.14,8.85A77.9,77.9,0,0,1,280.24,139a1,1,0,0,1-.31,1.35,1,1,0,0,1-.79.11,5.26,5.26,0,0,1-2.45-1.59,80.19,80.19,0,0,0-21.18-16.64Q240.42,114,225.56,105.33Z"/><path class="cls-1" d="M200.22,191.88l3.94,1.37a.24.24,0,0,1,.17.29.25.25,0,0,1-.25.18,36.39,36.39,0,0,1-9.68-.95,44.44,44.44,0,0,0-5.75-1.06,39,39,0,0,1-5.82-.82c-3.13-.94-6.77-1.34-9.46-2A234.57,234.57,0,0,1,141,178.11c-7.48-3.08-17.43-8.42-21.32-15.6-5.88-10.87,1.14-20.74,9.9-26.77,10.92-7.54,23.38-12.08,36-15.47a308.18,308.18,0,0,1,50.69-9.19c2.15-.2,4.32,2,6,3.27a.39.39,0,0,1,.09.54.42.42,0,0,1-.25.16q-16.9,3.06-33.5,7.79c-10.15,2.89-21.74,7.13-29.64,14-7,6.1-10.9,14.28-7.2,23.27q2.19,5.32,9,11.17a82.47,82.47,0,0,0,20.68,12.89l1.91.56a3.79,3.79,0,0,1,1.39.73,5.59,5.59,0,0,0,1.25.86,80.36,80.36,0,0,0,13.79,4.86.35.35,0,0,1,.27.32.65.65,0,0,0,0,.21A.28.28,0,0,0,200.22,191.88Z"/><path class="cls-3" d="M212.14,172.51s-57.81-26.06,40.71-44.79l-19.54-9S114.43,143.19,212.14,172.51Z"/><path class="cls-4" d="M288.67,124.47l-.81-9.77s87.12-3.26,121.31,31.75C409.17,146.45,366.84,121.21,288.67,124.47Z"/><path class="cls-5" d="M285.42,100.86l1.62,6.51s144.12-3.26,149.82,44.78l30.94-4.88S487.34,104.11,285.42,100.86Z"/><path class="cls-6" d="M548.4,156.22S536.19,79.69,279.72,87.83l1.62,5.7s199.48-4.07,235.31,61.06Z"/><path class="cls-7" d="M462.1,122.77S596.44,178.94,377.83,196C377.83,196,526.82,178.94,462.1,122.77Z"/><path class="cls-1" d="M335.35,172.23S403.2,148.35,302.24,137c0,0,43.43-3.25,58.62,9.23S362,172.23,335.35,172.23Z"/><path class="cls-8" d="M207.66,102.89,204,99.63s-137.6,13.85-163.25,44S90,212,195.85,207.11c0,0-112.76-29.72-85.89-65.14C110,142,119.32,121.21,207.66,102.89Z"/><path class="cls-2" d="M56.57,248.47l0,10.4a.55.55,0,0,0,.55.55H83.66a.55.55,0,0,1,.56.55h0l0,8.14a.55.55,0,0,1-.55.55h0l-26.59,0a.54.54,0,0,0-.55.55h0v12.69a.55.55,0,0,0,.55.56h30a.56.56,0,0,1,.56.55h0l0,8.13a.54.54,0,0,1-.55.55H47.83a.55.55,0,0,1-.56-.55h0V238a.56.56,0,0,1,.56-.55H85.93a.56.56,0,0,1,.56.55h0l.09,9.3a.55.55,0,0,1-.55.55H57.12a.55.55,0,0,0-.55.56Z"/><path class="cls-2" d="M103.24,282.47h24.29a.48.48,0,0,1,.49.48h0l.08,8.28a.48.48,0,0,1-.48.48h0l-33.75,0a.49.49,0,0,1-.49-.49v-53.3a.49.49,0,0,1,.49-.49l8.46,0a.48.48,0,0,1,.48.48l0,44A.48.48,0,0,0,103.24,282.47Z"/><path class="cls-2" d="M251.4,291.88c-33.56-2.32-31-56.7,3.75-54.38A25.13,25.13,0,0,1,266.76,241c13.2,8.07,14.89,29.14,6.52,41Q265.6,292.86,251.4,291.88Zm-4.13-9.31c20.6,6.91,27.64-20.65,16.6-32.38-5.21-5.53-15.15-5.66-20.85-.71C234.2,257.16,235.13,278.5,247.27,282.57Z"/><path class="cls-2" d="M294.11,269.13v22.09a.47.47,0,0,1-.47.47h0l-9.51,0a.48.48,0,0,1-.48-.48h0V238a.48.48,0,0,1,.48-.47h37.09a.47.47,0,0,1,.47.47h0l.06,9.46a.47.47,0,0,1-.47.47h0l-26.76,0a.47.47,0,0,0-.48.47h0l0,10.57a.47.47,0,0,0,.47.47h23.23a.48.48,0,0,1,.48.47h0l0,8.29a.47.47,0,0,1-.47.47h-23.2a.48.48,0,0,0-.47.48Z"/><path class="cls-2" d="M548.8,275.25c-4.57,14.72-21.19,20.5-34.57,14.52-15.24-6.84-18.55-28.82-9.5-41.89q8.14-11.77,23.27-10.31C547.44,239.45,553.86,259,548.8,275.25Zm-13.21,4.45c9-9,6.79-32-8-33.74s-20.78,13-17.57,25.32A17.49,17.49,0,0,0,514,279C519.49,284.93,530.17,285.15,535.59,279.7Z"/><path class="cls-2" d="M591.45,255.78q-2.79-9.14-11.44-9.93c-15.65-1.47-17.93,16.88-14.8,27.7,1.94,6.75,7.28,10.32,14.28,10s11.13-4.36,12.59-12.13a.66.66,0,0,1,.9-.59l7.76,1.81a.86.86,0,0,1,.65,1C599.2,285,591.48,291.24,580,292c-22.79,1.51-30.93-24.35-22.7-41.67,8.47-17.85,38.69-18,43.23,3.59a.51.51,0,0,1-.42.68l-7.39,1.88A.92.92,0,0,1,591.45,255.78Z"/><path class="cls-2" d="M33.73,263.25C40.11,267,42.17,274.11,39.5,281,35.27,291.93,26,291,14.24,291.15q-6.81.08-13.68-.06a.5.5,0,0,1-.55-.56V239a.51.51,0,0,1,.56-.58q8.56-.1,22.21.08c12.92.17,21.38,14.19,10.86,23.83a.59.59,0,0,0,0,.83A.69.69,0,0,0,33.73,263.25ZM9.26,247.69l0,11.07a.67.67,0,0,0,.66.66H22.33c3.62,0,6.55-2.42,6.54-5.39v-1.63c0-3-2.94-5.37-6.56-5.37h0L9.92,247A.65.65,0,0,0,9.26,247.69Zm0,21.1,0,13a.76.76,0,0,0,.76.76l12.84,0c4.54,0,8.21-3.14,8.2-7h0V275c0-3.86-3.69-7-8.22-7L10,268A.76.76,0,0,0,9.22,268.79Z"/><path class="cls-2" d="M141.91,271.29l0,19.23a.56.56,0,0,1-.64.62h-8.12a.54.54,0,0,1-.62-.61V239a.47.47,0,0,1,.53-.54q10.17-.21,20.25,0,8.66.15,12.45,2.1c7.68,3.95,9.45,13.52,6.22,21-4.93,11.45-19.07,9.19-29.46,9.12A.57.57,0,0,0,141.91,271.29Zm0-23.62,0,14a.65.65,0,0,0,.66.65l13.6,0c4.35,0,7.87-3.17,7.86-7.06h0V254c0-3.89-3.54-7-7.88-7l-13.61,0a.66.66,0,0,0-.65.66Z"/><path class="cls-2" d="M211.23,268.24c6.41,6,11.24,15.06,15.86,22.55a.25.25,0,0,1-.08.34.23.23,0,0,1-.14,0l-10.69,0a1,1,0,0,1-.89-.5q-7.24-11.89-12-18.3c-2.9-3.94-9.32-3.81-14.14-3.24a.64.64,0,0,0-.63.71l0,20.73a.54.54,0,0,1-.59.61l-8.09,0a.59.59,0,0,1-.58-.6l0-51.6a.48.48,0,0,1,.54-.53q9.54-.18,19,0c9.51.16,16.34-.68,20.81,6.5,5.48,8.81,1.83,19.18-8.27,22.57C210.91,267.64,210.86,267.89,211.23,268.24Zm-22.71-21-.07,12.55a.83.83,0,0,0,.83.83h0l13.49.07c5.33,0,9.68-2.74,9.7-6.18h0v-1.76c0-3.43-4.3-6.24-9.63-6.27l-13.49-.07a.83.83,0,0,0-.83.83Z"/><path class="cls-2" d="M355.25,256.8l-.09,33.75a.52.52,0,0,1-.59.59h-7.78a.52.52,0,0,1-.59-.59V239a.5.5,0,0,1,.57-.57l10.9,0a1.21,1.21,0,0,1,1.16.85l12.51,37.64c.28.85.57.85.85,0l12.94-37.63a1.22,1.22,0,0,1,1.15-.83h9.82a.53.53,0,0,1,.6.6l0,51.57a.53.53,0,0,1-.6.61l-7.78,0a.52.52,0,0,1-.59-.59V257.09a.26.26,0,0,0-.24-.28.27.27,0,0,0-.28.19l-11.59,33.54a.82.82,0,0,1-.84.59H368a.88.88,0,0,1-.9-.65l-11.39-33.77a.26.26,0,0,0-.32-.17A.27.27,0,0,0,355.25,256.8Z"/><path class="cls-2" d="M432.54,275.84h-18a.67.67,0,0,0-.63.45l-5.23,14.39a.66.66,0,0,1-.63.44l-8.54.05a.69.69,0,0,1-.69-.68.74.74,0,0,1,.05-.25l19.74-51.42a.68.68,0,0,1,.64-.43l8.1,0a.7.7,0,0,1,.64.43l21,51.41a.69.69,0,0,1-.36.9.87.87,0,0,1-.28,0l-9.1,0a.68.68,0,0,1-.64-.44l-5.48-14.41A.67.67,0,0,0,432.54,275.84Zm-9.36-24.79-5.87,15.84a.4.4,0,0,0,.23.51l.14,0,11.47.06q.63,0,.42-.6l-5.94-15.83Q423.39,250.45,423.18,251.05Z"/><path class="cls-2" d="M483.38,268.3A24.07,24.07,0,0,1,487,272q6,9.09,12,18.56a.41.41,0,0,1-.14.57.37.37,0,0,1-.21.06l-10.42-.05a1.06,1.06,0,0,1-.92-.51q-5-8.1-10-16a11.4,11.4,0,0,0-8.58-5.67,36.38,36.38,0,0,0-7.44.17.66.66,0,0,0-.66.73l0,20.59a.74.74,0,0,1-.74.74l-7.64,0c-.59,0-.88-.29-.88-.89V239a.46.46,0,0,1,.5-.52q12-.28,23.95,0,8,.19,11.31,2c8.93,4.83,9.27,18.71,1.12,24.64a43.66,43.66,0,0,1-4.84,2.4C483.05,267.72,483,268,483.38,268.3ZM460.67,247l-.06,13a.55.55,0,0,0,.55.56l14.09.06c5.12,0,9.28-2.73,9.3-6.17h0v-1.66c0-3.43-4.11-6.24-9.23-6.27l-14.09-.07a.56.56,0,0,0-.56.56Z"/></g></g></svg>