<svg xmlns="http://www.w3.org/2000/svg" xmlns:xlink="http://www.w3.org/1999/xlink" viewBox="0 0 1699 526"><defs><style>.cls-1{fill:none;}.cls-2{fill:#077854;}.cls-3{fill:url(#GB_Pattern);}</style><pattern id="GB_Pattern" data-name="GB_Pattern" width="149.66" height="149.66" patternTransform="translate(-43 128)" patternUnits="userSpaceOnUse" viewBox="0 0 149.66 149.66"><rect class="cls-1" width="149.66" height="149.66"/><polygon points="149.66 149.66 112.24 187.08 74.83 149.66 112.25 112.25 149.66 149.66"/><polygon class="cls-2" points="130.48 130.48 112.25 112.25 94.08 130.41 112.22 148.64 130.48 130.48"/><polygon class="cls-2" points="93.08 131.41 74.83 149.66 92.97 167.8 111.22 149.64 93.08 131.41"/><polygon class="cls-2" points="131.48 131.48 113.22 149.64 131.41 167.92 149.66 149.66 131.48 131.48"/><polygon points="149.66 149.66 112.24 187.08 74.83 149.66 112.25 112.25 149.66 149.66"/><polygon class="cls-2" points="130.48 130.48 112.25 112.25 94.08 130.41 112.22 148.64 130.48 130.48"/><polygon class="cls-2" points="93.08 131.41 74.83 149.66 92.97 167.8 111.22 149.64 93.08 131.41"/><polygon class="cls-2" points="131.48 131.48 113.22 149.64 131.41 167.92 149.66 149.66 131.48 131.48"/><polygon class="cls-2" points="167.84 167.84 186.1 149.68 167.91 131.4 149.66 149.66 167.84 167.84"/><polygon class="cls-2" points="149.66 149.66 112.24 112.24 149.66 74.83 187.07 112.25 149.66 149.66"/><polygon points="167.91 93.08 149.66 74.83 131.52 92.97 149.68 111.22 167.91 93.08"/><polygon points="167.84 131.48 149.68 113.22 131.4 131.41 149.66 149.66 167.84 131.48"/><polygon points="130.52 93.97 112.24 112.25 130.4 130.41 148.68 112.22 130.52 93.97"/><polygon points="0 149.66 37.42 112.24 74.83 149.66 37.41 187.07 0 149.66"/><polygon class="cls-2" points="56.58 167.91 74.83 149.66 56.69 131.52 38.44 149.68 56.58 167.91"/><polygon class="cls-2" points="18.18 167.84 36.44 149.68 18.25 131.4 0 149.66 18.18 167.84"/><polygon class="cls-2" points="55.69 130.52 37.41 112.24 19.25 130.4 37.44 148.68 55.69 130.52"/><polygon class="cls-2" points="0 149.66 -37.42 112.24 0 74.83 37.41 112.25 0 149.66"/><polygon points="19.18 130.48 37.41 112.25 19.25 94.08 1.02 112.22 19.18 130.48"/><polygon points="18.25 93.08 0 74.83 -18.14 92.97 0.02 111.22 18.25 93.08"/><polygon points="18.18 131.48 0.02 113.22 -18.26 131.41 0 149.66 18.18 131.48"/><polygon class="cls-2" points="167.91 56.58 149.66 74.83 167.8 92.97 186.05 74.81 167.91 56.58"/><polygon class="cls-2" points="167.91 56.58 149.66 74.83 167.8 92.97 186.05 74.81 167.91 56.58"/><polygon points="74.83 74.83 37.41 112.25 0 74.83 37.42 37.42 74.83 74.83"/><polygon class="cls-2" points="55.65 55.65 37.41 37.42 19.25 55.58 37.39 73.81 55.65 55.65"/><polygon class="cls-2" points="18.25 56.58 0 74.83 18.14 92.97 36.39 74.81 18.25 56.58"/><polygon class="cls-2" points="56.65 56.65 38.39 74.81 56.58 93.09 74.83 74.83 56.65 56.65"/><polygon class="cls-2" points="19.14 93.97 37.41 112.25 55.58 94.09 37.39 75.81 19.14 93.97"/><polygon points="74.83 74.83 37.41 112.25 0 74.83 37.42 37.42 74.83 74.83"/><polygon class="cls-2" points="55.65 55.65 37.41 37.42 19.25 55.58 37.39 73.81 55.65 55.65"/><polygon class="cls-2" points="18.25 56.58 0 74.83 18.14 92.97 36.39 74.81 18.25 56.58"/><polygon class="cls-2" points="56.65 56.65 38.39 74.81 56.58 93.09 74.83 74.83 56.65 56.65"/><polygon class="cls-2" points="19.14 93.97 37.41 112.25 55.58 94.09 37.39 75.81 19.14 93.97"/><polygon class="cls-2" points="74.83 74.83 112.25 112.25 74.83 149.66 37.42 112.24 74.83 74.83"/><polygon points="55.65 94.01 37.42 112.25 55.58 130.41 73.81 112.27 55.65 94.01"/><polygon points="56.58 131.41 74.83 149.66 92.97 131.52 74.81 113.27 56.58 131.41"/><polygon points="56.65 93.01 74.81 111.27 93.09 93.08 74.83 74.83 56.65 93.01"/><polygon points="93.97 130.52 112.25 112.25 94.09 94.08 75.81 112.27 93.97 130.52"/><polygon points="74.83 74.83 112.25 37.41 149.66 74.83 112.24 112.24 74.83 74.83"/><polygon class="cls-2" points="94.01 94.01 112.25 112.24 130.41 94.08 112.27 75.85 94.01 94.01"/><polygon class="cls-2" points="131.41 93.08 149.66 74.83 131.52 56.69 113.27 74.85 131.41 93.08"/><polygon class="cls-2" points="93.01 93.01 111.27 74.85 93.08 56.57 74.83 74.83 93.01 93.01"/><polygon class="cls-2" points="130.52 55.69 112.25 37.41 94.08 55.57 112.27 73.85 130.52 55.69"/><polygon class="cls-2" points="74.83 74.83 37.41 37.41 74.83 0 112.24 37.42 74.83 74.83"/><polygon points="94.01 55.65 112.24 37.41 94.08 19.25 75.85 37.39 94.01 55.65"/><polygon points="93.08 18.25 74.83 0 56.69 18.14 74.85 36.39 93.08 18.25"/><polygon points="93.01 56.65 74.85 38.39 56.57 56.58 74.83 74.83 93.01 56.65"/><polygon points="55.69 19.14 37.41 37.41 55.57 55.58 73.85 37.39 55.69 19.14"/><polygon points="149.66 0 112.24 37.42 74.83 0 112.25 -37.41 149.66 0"/><polygon class="cls-2" points="93.08 -18.25 74.83 0 92.97 18.14 111.22 -0.02 93.08 -18.25"/><polygon class="cls-2" points="131.48 -18.18 113.22 -0.02 131.41 18.26 149.66 0 131.48 -18.18"/><polygon class="cls-2" points="93.97 19.14 112.25 37.42 130.41 19.26 112.22 0.98 93.97 19.14"/><polygon points="149.66 0 112.24 37.42 74.83 0 112.25 -37.41 149.66 0"/><polygon class="cls-2" points="93.08 -18.25 74.83 0 92.97 18.14 111.22 -0.02 93.08 -18.25"/><polygon class="cls-2" points="131.48 -18.18 113.22 -0.02 131.41 18.26 149.66 0 131.48 -18.18"/><polygon class="cls-2" points="93.97 19.14 112.25 37.42 130.41 19.26 112.22 0.98 93.97 19.14"/><polygon class="cls-2" points="149.66 0 187.08 37.42 149.66 74.83 112.25 37.41 149.66 0"/><polygon points="130.48 19.18 112.25 37.41 130.41 55.58 148.64 37.44 130.48 19.18"/><polygon points="131.41 56.58 149.66 74.83 167.8 56.69 149.64 38.44 131.41 56.58"/><polygon points="131.48 18.18 149.64 36.44 167.92 18.25 149.66 0 131.48 18.18"/><polygon class="cls-2" points="167.84 18.18 186.1 0.02 167.91 -18.26 149.66 0 167.84 18.18"/><polygon points="167.84 -18.18 149.68 -36.44 131.4 -18.25 149.66 0 167.84 -18.18"/><polygon class="cls-2" points="0 0 37.42 37.42 0 74.83 -37.41 37.41 0 0"/><polygon points="-18.25 56.58 0 74.83 18.14 56.69 -0.02 38.44 -18.25 56.58"/><polygon points="-18.18 18.18 -0.02 36.44 18.26 18.25 0 0 -18.18 18.18"/><polygon points="19.14 55.69 37.42 37.41 19.26 19.25 0.98 37.44 19.14 55.69"/><polygon points="0 0 37.42 -37.42 74.83 0 37.41 37.41 0 0"/><polygon class="cls-2" points="19.18 19.18 37.41 37.41 55.58 19.25 37.44 1.02 19.18 19.18"/><polygon class="cls-2" points="56.58 18.25 74.83 0 56.69 -18.14 38.44 0.02 56.58 18.25"/><polygon class="cls-2" points="18.18 18.18 36.44 0.02 18.25 -18.26 0 0 18.18 18.18"/><polygon points="18.18 -18.18 0.02 -36.44 -18.26 -18.25 0 0 18.18 -18.18"/><polygon points="56.58 -18.25 74.83 0 92.97 -18.14 74.81 -36.39 56.58 -18.25"/></pattern></defs><title>bgGreenAsset 1</title><g id="Layer_2" data-name="Layer 2"><g id="Layer_1-2" data-name="Layer 1"><rect class="cls-3" width="1699" height="526"/></g></g></svg>